Coordinates
version=1
nRows=22
nColumns=24
inDegrees=yes

Units are S.I. units (second, meters, Newtons, ...)
Angles are in degrees.

endheader
time	pelvis_tilt	pelvis_list	pelvis_rotation	pelvis_tx	pelvis_ty	pelvis_tz	hip_flexion_r	hip_adduction_r	hip_rotation_r	knee_angle_r	ankle_angle_r	subtalar_angle_r	mtp_angle_r	hip_flexion_l	hip_adduction_l	hip_rotation_l	knee_angle_l	ankle_angle_l	subtalar_angle_l	mtp_angle_l	lumbar_extension	lumbar_bending	lumbar_rotation
      5.53000000	     -3.81311226	      1.07620581	    -17.93628212	     -2.11122654	      0.65454985	      0.09775104	    -16.59082913	      0.61073903	      9.06950525	    -14.08303553	     12.54484536	     -2.45967943	      0.00000000	     25.28623372	     -0.29764505	    -10.29309608	     -7.32315053	     -1.03709656	    -18.31839222	      0.00000000	     -6.97771850	     -6.80182504	      7.77493133
      5.54000000	     -3.56722532	      1.84267592	    -17.71718608	     -2.09810105	      0.65414757	      0.09867924	    -17.05362416	     -0.36763204	      8.24623907	    -15.05644299	     10.51038530	     -2.51052788	      0.00000000	     25.30388360	      0.59822196	    -10.81048104	     -9.14574054	     -2.68588099	    -19.17912901	      0.00000000	     -6.38499999	     -7.88467848	      7.45871465
      5.55000000	     -3.39753898	      2.73416377	    -17.24610521	     -2.08516192	      0.65396035	      0.09940999	    -17.14321587	     -1.33140916	      7.13812933	    -16.45100696	      8.25592855	     -2.46944639	      0.00000000	     25.55244788	      1.64263645	    -11.23077348	    -11.25998402	     -3.34541527	    -19.26054638	      0.00000000	     -5.77849189	     -9.10209297	      6.92254128
      5.56000000	     -3.30942377	      3.68749734	    -16.65302998	     -2.07250098	      0.65398587	      0.10009624	    -16.89570646	     -2.19200885	      6.37406224	    -18.21296681	      5.31203956	     -3.45246196	      0.00000000	     25.93378712	      2.72453360	    -11.68988750	    -13.54551151	     -2.85228599	    -18.67181818	      0.00000000	     -5.17520396	    -10.40877660	      6.32908688
      5.57000000	     -3.19589253	      4.62087955	    -15.99311549	     -2.06012376	      0.65431090	      0.10064330	    -16.35288357	     -2.99295911	      5.57131373	    -20.46424761	      2.14872935	     -4.46034070	      0.00000000	     26.17517118	      3.82315225	    -12.14498641	    -15.72085478	     -1.54428468	    -17.58331394	      0.00000000	     -4.73094450	    -11.69914178	      5.79397205
      5.58000000	     -3.06826207	      5.51389066	    -15.41222560	     -2.04808415	      0.65490296	      0.10109872	    -15.47819646	     -3.76363614	      4.92544294	    -23.20246006	     -1.19462339	     -5.64337835	      0.00000000	     26.12424664	      4.92891109	    -12.47132416	    -17.43365982	      0.00690521	    -16.60080373	      0.00000000	     -4.41702701	    -12.92918371	      5.48099764
      5.59000000	     -2.91272668	      6.36251061	    -15.02127802	     -2.03640816	      0.65574262	      0.10148235	    -14.27907966	     -4.54554809	      4.55328372	    -26.38511769	     -4.53049159	     -6.98462154	      0.00000000	     25.70614511	      6.03368378	    -12.70702774	    -18.52307814	      1.54594238	    -15.86800127	      0.00000000	     -4.21702395	    -14.05972514	      5.40911624
      5.60000000	     -2.72707858	      7.12638462	    -14.82996163	     -2.02513761	      0.65679562	      0.10181079	    -12.78220506	     -5.29370742	      4.46014440	    -29.94926318	     -7.63576449	     -8.47251251	      0.00000000	     24.92748133	      7.08992366	    -12.88845759	    -18.98984056	      3.08051116	    -15.15244671	      0.00000000	     -4.14626293	    -15.03473910	      5.52143747
      5.61000000	     -2.52043132	      7.85042816	    -14.97479683	     -2.01430152	      0.65800426	      0.10219010	    -10.95116710	     -6.06416089	      4.77513595	    -33.85716395	    -10.29282428	    -10.03335116	      0.00000000	     23.83544339	      8.09603773	    -13.13248854	    -18.80395659	      4.13520076	    -14.94484096	      0.00000000	     -4.12549328	    -15.89259109	      5.85328916
      5.62000000	     -2.28850169	      8.46899762	    -15.30494351	     -2.00391105	      0.65930875	      0.10255682	     -8.88075716	     -6.74396379	      5.28139723	    -37.96886846	    -12.30758354	    -11.75800114	      0.00000000	     22.54413446	      9.00121034	    -13.42943837	    -18.23706877	      5.05454539	    -14.74852197	      0.00000000	     -4.22515904	    -16.55753212	      6.16914602
      5.63000000	     -2.07368171	      8.97415526	    -15.79075063	     -1.99394205	      0.66065707	      0.10295015	     -6.60885981	     -7.26749872	      6.00690214	    -42.12369507	    -13.58463591	    -13.69344070	      0.00000000	     21.15572289	      9.78207948	    -13.73890314	    -17.40409835	      5.83286666	    -14.49230977	      0.00000000	     -4.38465769	    -17.02055922	      6.39598096
      5.64000000	     -1.87699767	      9.37324658	    -16.33352526	     -1.98434620	      0.66202537	      0.10332719	     -4.21866887	     -7.63008441	      6.78229719	    -46.16418697	    -14.10524127	    -15.85399838	      0.00000000	     19.75987569	     10.44551016	    -14.09523027	    -16.48752835	      6.45156913	    -14.14910317	      0.00000000	     -4.62432631	    -17.30247591	      6.45801967
      5.65000000	     -1.72752802	      9.65886482	    -16.83518462	     -1.97505712	      0.66339083	      0.10364794	     -1.77289837	     -7.79735283	      7.52896754	    -49.94224090	    -14.01564581	    -18.27062363	      0.00000000	     18.42188913	     10.99119804	    -14.41522273	    -15.59956791	      7.02302915	    -13.67990325	      0.00000000	     -4.92670281	    -17.40363373	      6.30644505
      5.66000000	     -1.63781478	      9.83217467	    -17.22039027	     -1.96600246	      0.66474794	      0.10386902	      0.67524794	     -7.76892702	      8.17923144	    -53.36132443	    -13.43691109	    -20.84344552	      0.00000000	     17.16422537	     11.42824785	    -14.63226683	    -14.79307773	      7.59241463	    -13.08054710	      0.00000000	     -5.28670470	    -17.33735251	      5.92495921
      5.67000000	     -1.61814281	      9.88599055	    -17.43472404	     -1.95712689	      0.66607984	      0.10395442	      3.09467106	     -7.54826381	      8.68268784	    -56.37618494	    -12.51619523	    -23.39855165	      0.00000000	     15.98962497	     11.75612880	    -14.68560000	    -14.08599877	      8.17480628	    -12.40529604	      0.00000000	     -5.69363831	    -17.10791533	      5.33169684
      5.68000000	     -1.59273979	      9.85628276	    -17.46735158	     -1.94834786	      0.66740419	      0.10385556	      5.40855243	     -7.24073470	      8.99099036	    -58.99387452	    -11.19687248	    -25.49885968	      0.00000000	     14.77808665	     12.07144633	    -14.39252567	    -13.37907056	      8.68765402	    -11.94398012	      0.00000000	     -6.20821778	    -16.77848392	      4.53631256
      5.69000000	     -1.69992269	      9.68902527	    -17.34219364	     -1.93972116	      0.66860965	      0.10364520	      7.73826672	     -6.72535760	      9.19092165	    -61.20246729	     -9.92085692	    -27.45566644	      0.00000000	     13.70578700	     12.21957658	    -13.97592342	    -12.77636853	      9.12042425	    -11.50278719	      0.00000000	     -6.65868382	    -16.27052958	      3.71679260
      5.70000000	     -1.85341824	      9.43508915	    -17.10159294	     -1.93119113	      0.66970672	      0.10335282	     10.01583119	     -6.10770737	      9.29138029	    -63.02250267	     -8.67180030	    -29.09797124	      0.00000000	     12.67028281	     12.28514644	    -13.43225807	    -12.21028878	      9.50512345	    -11.15013921	      0.00000000	     -7.09680100	    -15.67492397	      2.91476808
      5.71000000	     -2.05128134	      9.12239627	    -16.74484686	     -1.92277911	      0.67066603	      0.10300995	     12.25197894	     -5.42497987	      9.29375630	    -64.47378856	     -7.45210289	    -30.44105150	      0.00000000	     11.68600663	     12.28844590	    -12.76679634	    -11.69037782	      9.86155002	    -10.88390480	      0.00000000	     -7.51647727	    -15.04462372	      2.15896871
      5.72000000	     -2.33535832	      8.76375229	    -16.27015716	     -1.91439047	      0.67145903	      0.10262183	     14.47424961	     -4.70430039	      9.18427126	    -65.53363019	     -6.27088781	    -31.47425625	      0.00000000	     10.76297366	     12.23224298	    -12.00677158	    -11.14982302	     10.20763890	    -10.72181437	      0.00000000	     -7.80916020	    -14.34633837	      1.37045093
      5.73000000	     -2.70050517	      8.43383533	    -15.72027145	     -1.90610829	      0.67204399	      0.10226008	     16.73545471	     -4.01965670	      9.01529525	    -66.26042049	     -4.77822457	    -31.98293750	      0.00000000	      9.94144752	     12.18157886	    -11.12186974	    -10.60013906	     10.28367525	    -10.88909435	      0.00000000	     -7.97907829	    -13.71311364	      0.68918370
      5.74000000	     -2.93708500	      8.03441968	    -15.09673449	     -1.89786051	      0.67264424	      0.10199196	     18.71746401	     -3.32487598	      8.79087077	    -66.54589619	     -3.60826081	    -32.65678647	      0.00000000	      9.00387686	     12.06113109	    -10.30600627	    -10.13946099	     10.70812937	    -10.72799763	      0.00000000	     -8.29841936	    -13.09253800	      0.01979150
